<?xml version="1.0" encoding="utf-8"?>

<svg version="1.1" xmlns="http://www.w3.org/2000/svg" xmlns:xlink="http://www.w3.org/1999/xlink" width="17" height="402">
<g transform="translate(0, 170)">
<path fill="#FFFFFF" d="M12,0H0v10h4h1l0,0V9l0,0V7l0,0V6l0,0V4h8V3V0H12z M1,1h3v2H1V1z M4,9H1V7h3V9z M4,6H1V4h3V6z M5,3V1h3v2H5z&#xD;&#xA;	 M9,3V1h3v2H9z" xmlns="http://www.w3.org/2000/svg" />
<g xmlns="http://www.w3.org/2000/svg">
	<path fill="#FFFFFF" d="M4,3v13h12V3H4z M15,15H5V4h10V15z" />
	<rect x="6" y="8" fill="#FFFFFF" width="8" height="1" />
	<rect x="6" y="10" fill="#FFFFFF" width="8" height="1" />
	<rect x="6" y="12" fill="#FFFFFF" width="8" height="1" />
	<rect x="6" y="6" fill="#FFFFFF" width="8" height="1" />
</g>
</g>

<g transform="translate(10, 366)">
<polygon points="0,0 0,7 4,3.5 " xmlns="http://www.w3.org/2000/svg" />
</g>

<g transform="translate(11, 377)">
<polygon points="4,0 4,7 0,3.5 " xmlns="http://www.w3.org/2000/svg" />
</g>

<g transform="translate(0, 136)">
<path fill="#757575" d="M1,1v14h14V1H1z M12,9H4V7h8V9z" xmlns="http://www.w3.org/2000/svg" />
</g>

<g transform="translate(0, 68)">
<path fill="#BDBDBD" d="M1,1v14h14V1H1z M12,9H4V7h8V9z" xmlns="http://www.w3.org/2000/svg" />
</g>

<g transform="translate(0, 204)">
<polygon fill="#DC4C40" points="14,4 12,2 8,6 4,2 2,4 6,8 2,12 4,14 8,10 12,14 14,12 10,8 " xmlns="http://www.w3.org/2000/svg" />
</g>

<g transform="translate(0, 119)">
<polygon fill="#BDBDBD" points="14,4 12,2 8,6 4,2 2,4 6,8 2,12 4,14 8,10 12,14 14,12 10,8 " xmlns="http://www.w3.org/2000/svg" />
</g>

<g transform="translate(0, 85)">
<g xmlns="http://www.w3.org/2000/svg">
	<path fill="#757575" d="M10,2l-8,8v4h3.9L14,6L10,2z M5,13l-2-2l6-6l2,2L5,13z" />
	<rect x="9" y="13" fill="#757575" width="5" height="1" />
</g>
</g>

<g transform="translate(0, 153)">
<g xmlns="http://www.w3.org/2000/svg">
	<path fill="#BDBDBD" d="M10,2l-8,8v4h3.9L14,6L10,2z M5,13l-2-2l6-6l2,2L5,13z" />
	<rect x="9" y="13" fill="#BDBDBD" width="5" height="1" />
</g>
</g>

<g transform="translate(0, 0)">
<path fill="#757575" d="M1,1v14h14V1H1z M12,9H9v3H7V9H4V7h3V4h2v3h3V9z" xmlns="http://www.w3.org/2000/svg" />
</g>

<g transform="translate(0, 221)">
<path fill="#BDBDBD" d="M1,1v14h14V1H1z M12,9H9v3H7V9H4V7h3V4h2v3h3V9z" xmlns="http://www.w3.org/2000/svg" />
</g>

<g transform="translate(0, 306)">
<g xmlns="http://www.w3.org/2000/svg">
	<path fill="#757575" d="M7,0v9h9V0H7z M14,5H9V4h5V5z" />
	<path fill="#757575" d="M0,7v9h9V7H0z M7,12H2v-1h5V12z" />
</g>
</g>

<g transform="translate(0, 238)">
<g xmlns="http://www.w3.org/2000/svg">
	<path fill="#BDBDBD" d="M7,0v9h9V0H7z M14,5H9V4h5V5z" />
	<path fill="#BDBDBD" d="M0,7v9h9V7H0z M7,12H2v-1h5V12z" />
</g>
</g>

<g transform="translate(0, 34)">
<path fill="#757575" d="M7,0v9h9V0H7z M14,5h-2v2h-1V5H9V4h2V2h1v2h2V5z" xmlns="http://www.w3.org/2000/svg" />
<path fill="#757575" d="M0,7v9h9V7H0z M7,12H5v2H4v-2H2v-1h2V9h1v2h2V12z" xmlns="http://www.w3.org/2000/svg" />
</g>

<g transform="translate(0, 187)">
<path fill="#BDBDBD" d="M7,0v9h9V0H7z M14,5h-2v2h-1V5H9V4h2V2h1v2h2V5z" xmlns="http://www.w3.org/2000/svg" />
<path fill="#BDBDBD" d="M0,7v9h9V7H0z M7,12H5v2H4v-2H2v-1h2V9h1v2h2V12z" xmlns="http://www.w3.org/2000/svg" />
</g>

<g transform="translate(0, 51)">
<path fill="#757575" d="M8,1C4.1,1,1,4.1,1,8s3.1,7,7,7s7-3.1,7-7S11.9,1,8,1z M12,9H9v3H7V9H4V7h3V4h2v3h3V9z" xmlns="http://www.w3.org/2000/svg" />
</g>

<g transform="translate(0, 323)">
<path fill="#BDBDBD" d="M8,1C4.1,1,1,4.1,1,8s3.1,7,7,7s7-3.1,7-7S11.9,1,8,1z M12,9H9v3H7V9H4V7h3V4h2v3h3V9z" xmlns="http://www.w3.org/2000/svg" />
</g>

<g transform="translate(0, 272)">
<g xmlns="http://www.w3.org/2000/svg">
	<path fill="#757575" d="M13.6,3.9C12.4,2.1,10.3,1,8,1C4.8,1,2.2,3.1,1.3,6h1.9C3.9,4.1,5.8,2.8,8,2.8c1.8,0,3.4,1,4.4,2.4L10.5,7h2.6&#xD;&#xA;		h1.8H15V2.5L13.6,3.9z" />
	<path fill="#757575" d="M8.2,13.3c-1.7,0-3.2-1-4.2-2.3l2-2H3.1H1.3H1v5l1.8-1.8C4.1,13.8,6,15,8.2,15c3.2,0,5.8-2.1,6.7-5H13&#xD;&#xA;		C12.3,11.9,10.4,13.3,8.2,13.3z" />
</g>
</g>

<g transform="translate(0, 255)">
<g xmlns="http://www.w3.org/2000/svg">
	<path fill="#BDBDBD" d="M13.6,3.9C12.4,2.1,10.3,1,8,1C4.8,1,2.2,3.1,1.3,6h1.9C3.9,4.1,5.8,2.8,8,2.8c1.8,0,3.4,1,4.4,2.4L10.5,7h2.6&#xD;&#xA;		h1.8H15V2.5L13.6,3.9z" />
	<path fill="#BDBDBD" d="M8.2,13.3c-1.7,0-3.2-1-4.2-2.3l2-2H3.1H1.3H1v5l1.8-1.8C4.1,13.8,6,15,8.2,15c3.2,0,5.8-2.1,6.7-5H13&#xD;&#xA;		C12.3,11.9,10.4,13.3,8.2,13.3z" />
</g>
</g>

<g transform="translate(0, 289)">
<path fill="#BDBDBD" d="M12,0H0v10h4h1l0,0V9l0,0V7l0,0V6l0,0V4h8V3V0H12z M1,1h3v2H1V1z M4,9H1V7h3V9z M4,6H1V4h3V6z M5,3V1h3v2H5z&#xD;&#xA;	 M9,3V1h3v2H9z" xmlns="http://www.w3.org/2000/svg" />
<g xmlns="http://www.w3.org/2000/svg">
	<path fill="#757575" d="M4,3v13h12V3H4z M15,15H5V4h10V15z" />
	<rect x="6" y="8" fill="#757575" width="8" height="1" />
	<rect x="6" y="10" fill="#757575" width="8" height="1" />
	<rect x="6" y="12" fill="#757575" width="8" height="1" />
	<rect x="6" y="6" fill="#757575" width="8" height="1" />
</g>
</g>

<g transform="translate(0, 102)">
<path fill="#BDBDBD" d="M12,0H0v10h4h1l0,0V9l0,0V7l0,0V6l0,0V4h8V3V0H12z M1,1h3v2H1V1z M4,9H1V7h3V9z M4,6H1V4h3V6z M5,3V1h3v2H5z&#xD;&#xA;	 M9,3V1h3v2H9z" xmlns="http://www.w3.org/2000/svg" />
<g xmlns="http://www.w3.org/2000/svg">
	<path fill="#BDBDBD" d="M4,3v13h12V3H4z M15,15H5V4h10V15z" />
	<rect x="6" y="8" fill="#BDBDBD" width="8" height="1" />
	<rect x="6" y="10" fill="#BDBDBD" width="8" height="1" />
	<rect x="6" y="12" fill="#BDBDBD" width="8" height="1" />
	<rect x="6" y="6" fill="#BDBDBD" width="8" height="1" />
</g>
</g>

<g transform="translate(0, 387)">
<polygon fill="#BDBDBD" points="3,0 3,4 0,4 5,9 10,4 7,4 7,0 " xmlns="http://www.w3.org/2000/svg" />
</g>

<g transform="translate(0, 377)">
<polygon fill="#BDBDBD" points="7,9 7,5 10,5 5,0 0,5 3,5 3,9 " xmlns="http://www.w3.org/2000/svg" />
</g>

<g transform="translate(0, 17)">
<path fill="#EF5551" d="M8,2C4.7,2,2,4.7,2,8s2.7,6,6,6s6-2.7,6-6S11.3,2,8,2z M11,10l-1,1L8,9l-2,2l-1-1l2-2L5,6l1-1l2,2&#xD;&#xA;	l2-2l1,1L9,8L11,10z" xmlns="http://www.w3.org/2000/svg" />
</g>

<g transform="translate(0, 366)">
<polygon fill="#BDBDBD" points="0,7 4,7 4,10 9,5 4,0 4,3 0,3 " xmlns="http://www.w3.org/2000/svg" />
</g>

<g transform="translate(0, 397)">
<polygon points="7,0 0,0 3.5,4 " xmlns="http://www.w3.org/2000/svg" />
</g>

<g transform="translate(8, 397)">
<polygon points="7,0 0,0 3.5,4 " xmlns="http://www.w3.org/2000/svg" />
</g>

<g transform="translate(0, 340)">
<polygon fill="#BDBDBD" points="5,12 5,3 3.5,5 2.5,4 6,0 9.5,4 8.5,5 7,3 7,12 " xmlns="http://www.w3.org/2000/svg" />
</g>

<g transform="translate(0, 353)">
<polygon fill="#BDBDBD" points="7,0 7,9 8.5,7 9.5,8 6,12 2.5,8 3.5,7 5,9 5,0 " xmlns="http://www.w3.org/2000/svg" />
</g>


</svg>

