<?xml version="1.0" encoding="utf-8"?>

<svg version="1.1" xmlns="http://www.w3.org/2000/svg" xmlns:xlink="http://www.w3.org/1999/xlink" width="199" height="32">
<g transform="translate(45, 17)">
<g xmlns="http://www.w3.org/2000/svg">
	<path fill="#FFFFFF" d="M9.9,9.3h0.7l3.4,3.4L12.7,14l-3.4-3.4V9.9L9.1,9.7c-1,0.8-2.2,1.3-3.6,1.3C2.5,11,0,8.6,0,5.5&#xD;&#xA;		C0,2.5,2.5,0,5.5,0C8.6,0,11,2.5,11,5.5c0,1.4-0.5,2.6-1.3,3.6L9.9,9.3z M5.5,2C3.6,2,2,3.6,2,5.5S3.6,9,5.5,9S9,7.4,9,5.5&#xD;&#xA;		S7.4,2,5.5,2z" />
</g>
</g>

<g transform="translate(172, 17)">
<path fill="#757575" d="M0,10.5L1.5,12l6-6l-6-6L0,1.4L4.5,6L0,10.5z" xmlns="http://www.w3.org/2000/svg" />
</g>

<g transform="translate(133, 17)">
<path fill="#757575" d="M6,5l4.5,4.5L12,8L6,2L0,8l1.5,1.5L6,5z" xmlns="http://www.w3.org/2000/svg" />
</g>

<g transform="translate(185, 17)">
<path fill="#757575" d="M6,5l4.5,4.5L12,8L6,2L0,8l1.5,1.5L6,5z" xmlns="http://www.w3.org/2000/svg" />
</g>

<g transform="translate(102, 0)">
<g xmlns="http://www.w3.org/2000/svg">
	<polygon fill="#757575" points="14,14 15,13 13,11 15,9 14,8 12,10 10,8 9,9 11,11 9,13 10,14 12,12 	" />
</g>
<polygon fill="#757575" points="0,2 10,2 10,4 6,7 6,12 4,14 4,7 0,4 " xmlns="http://www.w3.org/2000/svg" />
</g>

<g transform="translate(153, 0)">
<g xmlns="http://www.w3.org/2000/svg">
	<polygon fill="#BDBDBD" points="14,14 15,13 13,11 15,9 14,8 12,10 10,8 9,9 11,11 9,13 10,14 12,12 	" />
</g>
<polygon fill="#BDBDBD" points="0,2 10,2 10,4 6,7 6,12 4,14 4,7 0,4 " xmlns="http://www.w3.org/2000/svg" />
</g>

<g transform="translate(85, 0)">
<polygon fill="#DC4C40" points="14,4 12,2 8,6 4,2 2,4 6,8 2,12 4,14 8,10 12,14 14,12 10,8 " xmlns="http://www.w3.org/2000/svg" />
</g>

<g transform="translate(119, 0)">
<polygon fill="#BDBDBD" points="14,4 12,2 8,6 4,2 2,4 6,8 2,12 4,14 8,10 12,14 14,12 10,8 " xmlns="http://www.w3.org/2000/svg" />
</g>

<g transform="translate(170, 0)">
<g xmlns="http://www.w3.org/2000/svg">
	<path fill="#757575" d="M10,2l-8,8v4h3.9L14,6L10,2z M5,13l-2-2l6-6l2,2L5,13z" />
	<rect x="9" y="13" fill="#757575" width="5" height="1" />
</g>
</g>

<g transform="translate(34, 0)">
<g xmlns="http://www.w3.org/2000/svg">
	<path fill="#BDBDBD" d="M10,2l-8,8v4h3.9L14,6L10,2z M5,13l-2-2l6-6l2,2L5,13z" />
	<rect x="9" y="13" fill="#BDBDBD" width="5" height="1" />
</g>
</g>

<g transform="translate(68, 0)">
<path fill="#757575" d="M8,1C4.1,1,1,4.1,1,8s3.1,7,7,7s7-3.1,7-7S11.9,1,8,1z M12,9H9v3H7V9H4V7h3V4h2v3h3V9z" xmlns="http://www.w3.org/2000/svg" />
</g>

<g transform="translate(136, 0)">
<path fill="#BDBDBD" d="M8,1C4.1,1,1,4.1,1,8s3.1,7,7,7s7-3.1,7-7S11.9,1,8,1z M12,9H9v3H7V9H4V7h3V4h2v3h3V9z" xmlns="http://www.w3.org/2000/svg" />
</g>

<g transform="translate(0, 0)">
<g xmlns="http://www.w3.org/2000/svg">
	<path fill="#757575" d="M13.6,3.9C12.4,2.1,10.3,1,8,1C4.8,1,2.2,3.1,1.3,6h1.9C3.9,4.1,5.8,2.8,8,2.8c1.8,0,3.4,1,4.4,2.4L10.5,7h2.6&#xD;&#xA;		h1.8H15V2.5L13.6,3.9z" />
	<path fill="#757575" d="M8.2,13.3c-1.7,0-3.2-1-4.2-2.3l2-2H3.1H1.3H1v5l1.8-1.8C4.1,13.8,6,15,8.2,15c3.2,0,5.8-2.1,6.7-5H13&#xD;&#xA;		C12.3,11.9,10.4,13.3,8.2,13.3z" />
</g>
</g>

<g transform="translate(17, 0)">
<g xmlns="http://www.w3.org/2000/svg">
	<path fill="#BDBDBD" d="M13.6,3.9C12.4,2.1,10.3,1,8,1C4.8,1,2.2,3.1,1.3,6h1.9C3.9,4.1,5.8,2.8,8,2.8c1.8,0,3.4,1,4.4,2.4L10.5,7h2.6&#xD;&#xA;		h1.8H15V2.5L13.6,3.9z" />
	<path fill="#BDBDBD" d="M8.2,13.3c-1.7,0-3.2-1-4.2-2.3l2-2H3.1H1.3H1v5l1.8-1.8C4.1,13.8,6,15,8.2,15c3.2,0,5.8-2.1,6.7-5H13&#xD;&#xA;		C12.3,11.9,10.4,13.3,8.2,13.3z" />
</g>
</g>

<g transform="translate(30, 17)">
<polygon fill="#757575" points="2,1 12,1 12,3 8,6 8,11 6,13 6,6 2,3 " xmlns="http://www.w3.org/2000/svg" />
</g>

<g transform="translate(15, 17)">
<polygon fill="#BDBDBD" points="2,1 12,1 12,3 8,6 8,11 6,13 6,6 2,3 " xmlns="http://www.w3.org/2000/svg" />
</g>

<g transform="translate(75, 17)">
<g xmlns="http://www.w3.org/2000/svg">
	<path fill="#757575" d="M9.9,9.3h0.7l3.4,3.4L12.7,14l-3.4-3.4V9.9L9.1,9.7c-1,0.8-2.2,1.3-3.6,1.3C2.5,11,0,8.6,0,5.5&#xD;&#xA;		C0,2.5,2.5,0,5.5,0C8.6,0,11,2.5,11,5.5c0,1.4-0.5,2.6-1.3,3.6L9.9,9.3z M5.5,2C3.6,2,2,3.6,2,5.5S3.6,9,5.5,9S9,7.4,9,5.5&#xD;&#xA;		S7.4,2,5.5,2z" />
</g>
</g>

<g transform="translate(51, 0)">
<g xmlns="http://www.w3.org/2000/svg">
	<path fill="#BDBDBD" d="M12.5,11h-0.8l-0.3-0.3c1-1.1,1.6-2.6,1.6-4.2C13,2.9,10.1,0,6.5,0S0,2.9,0,6.5C0,10.1,2.9,13,6.5,13&#xD;&#xA;		c1.6,0,3.1-0.6,4.2-1.6l0.3,0.3v0.8l3.5,3.5l1.5-1.5L12.5,11z M6.5,11C4,11,2,9,2,6.5C2,4,4,2,6.5,2C9,2,11,4,11,6.5&#xD;&#xA;		C11,9,9,11,6.5,11z" />
</g>
</g>

<g transform="translate(146, 17)">
<path fill="#757575" d="M1.5,2.5L0,4l6,6l6-6l-1.5-1.5L6,7L1.5,2.5z" xmlns="http://www.w3.org/2000/svg" />
</g>

<g transform="translate(90, 17)">
<path fill="#DC4C40" d="M7,0C3.1,0,0,3.1,0,7s3.1,7,7,7s7-3.1,7-7S10.9,0,7,0z M8,12H6v-2h2V12z M8,8H6V2h2V8z" xmlns="http://www.w3.org/2000/svg" />
</g>

<g transform="translate(60, 17)">
<polygon fill="#BDBDBD" points="2,1 12,1 12,3 8,6 8,11 6,13 6,6 2,3 " xmlns="http://www.w3.org/2000/svg" />
</g>

<g transform="translate(0, 17)">
<polygon fill="#BDBDBD" points="2,1 12,1 12,3 8,6 8,11 6,13 6,6 2,3 " xmlns="http://www.w3.org/2000/svg" />
</g>

<g transform="translate(105, 17)">
<polygon fill="#35B86B" points="2,1 12,1 12,3 8,6 8,11 6,13 6,6 2,3 " xmlns="http://www.w3.org/2000/svg" />
</g>

<g transform="translate(159, 17)">
<polygon fill="#bdbdbd" points="7,1 7,9 8.5,7 9.5,8 6,12 2.5,8 3.5,7 5,9 5,1 " xmlns="http://www.w3.org/2000/svg" />
</g>

<g transform="translate(120, 17)">
<polygon fill="#bdbdbd" points="5,13 5,5 3.5,7 2.5,6 6,2 9.5,6 8.5,7 7,5 7,13 " xmlns="http://www.w3.org/2000/svg" />
</g>


</svg>

